<svg width="86" height="80" viewBox="0 0 86 80" fill="none" xmlns="http://www.w3.org/2000/svg">
<g clip-path="url(#clip0_1862_62144)">
<path d="M61.701 4.38515C61.9136 5.357 61.8002 6.54166 61.7612 6.88216C62.4273 6.07701 64.4788 5.64429 66.0343 5.38182C62.4203 3.22177 59.6602 1.59375 59.6602 1.59375C59.6602 1.59375 61.453 3.2395 61.701 4.38515Z" fill="#0BACAC"/>
<path d="M73.1538 15.5381C72.7711 12.1756 71.4956 9.70698 69.3697 8.19956C67.4422 6.83046 65.0683 6.55026 62.5137 7.39442C61.8618 7.61078 61.2771 7.87324 60.7917 8.12153C60.7776 7.57176 60.7598 6.96524 60.7244 6.4403C60.5791 4.12064 58.9635 0.407051 55.2467 0.318379C53.6806 0.28291 51.8205 1.3186 49.7194 3.40772C49.0852 4.03906 48.5289 4.66686 48.0967 5.18116C47.8309 4.6172 47.5262 3.95394 47.2782 3.36515C46.8601 2.36848 45.659 1.34698 44.146 0.694349C42.3922 -0.0611374 40.4753 -0.210107 38.7534 0.279364C35.3626 1.24057 30.2392 4.65977 26.03 11.3847C22.7526 16.6234 21.7073 23.5044 21.4274 25.934C20.3432 25.9943 18.4937 26.3312 16.5627 27.7287C15.7017 28.3494 12.729 30.7897 10.635 36.0497C9.11499 39.8626 9.53662 43.6259 9.83071 45.2255C9.16105 45.5802 8.17251 46.247 7.20169 47.4139C5.7242 49.1874 2.84008 53.5926 1.4122 58.842C0.0728891 63.758 -0.107811 67.5248 3.11645 71.0965C4.2786 72.384 5.82695 72.8025 7.35759 72.8025C10.1602 72.8025 12.8991 71.3909 13.0727 71.2986C13.0833 71.2951 13.0904 71.288 13.101 71.2845C13.1754 71.2419 18.0969 68.4328 24.4391 64.7866L24.3789 62.6301C19.7444 65.2973 15.2092 67.9043 12.1834 69.6316C11.8999 69.777 6.77652 72.3272 4.51599 69.8302C2.16689 67.2304 1.83029 64.4886 3.23337 59.3421C4.57977 54.3977 7.36822 50.1734 8.65084 48.627C9.88385 47.1444 11.1098 46.7081 11.1913 46.6833C11.6873 46.5414 11.9601 46.0306 11.829 45.5341C11.8184 45.4915 10.6704 41.0756 12.3924 36.7555C14.2986 31.9708 16.917 29.8143 17.6717 29.2681C19.9676 27.6081 22.0262 27.8174 22.1573 27.8351C22.416 27.8741 22.6746 27.8032 22.8766 27.64C23.0821 27.4769 23.2025 27.2321 23.2238 26.9697C23.2309 26.8846 23.9147 18.3401 27.6315 12.3991C31.5573 6.12463 36.3547 2.93598 39.2671 2.10956C41.0316 1.60945 42.6154 2.10246 43.402 2.44296C44.6881 2.99628 45.3861 3.74467 45.5385 4.11C46.1408 5.54294 47.0231 7.30929 47.0585 7.38377C47.2073 7.67817 47.4979 7.87679 47.8238 7.90162C48.1533 7.93 48.4722 7.78103 48.6671 7.51501C48.6777 7.50082 49.6982 6.10335 51.0694 4.74135C52.7346 3.0885 54.205 2.19468 55.2042 2.21951C57.7482 2.27981 58.7544 5.17761 58.843 6.57154C58.9245 7.87325 58.9245 9.78502 58.9245 9.80275C58.9245 10.161 59.13 10.4908 59.4489 10.6505C59.7713 10.8101 60.154 10.7746 60.441 10.5547C60.4516 10.5476 61.5889 9.68925 63.155 9.18204C65.125 8.54361 66.8505 8.73514 68.2784 9.74955C69.972 10.9519 70.9535 12.9169 71.2759 15.7615C71.5593 18.2372 71.3326 21.3195 70.585 25.1785C69.3555 31.5274 65.3376 37.1741 62.2692 40.079C61.5075 40.799 56.1219 44.1472 49.8257 47.8892L49.9001 50.0457C61.5748 43.1257 63.2223 41.7815 63.5696 41.4552C66.8399 38.3552 71.1271 32.329 72.4416 25.5403C73.2246 21.4862 73.4585 18.216 73.1538 15.5487V15.5381Z" fill="#2AC9C9"/>
<path d="M48.9737 51.8945L26 65.0038L35.8925 72.1827L57.3887 59.875L48.9737 51.8945Z" fill="#2AC9C9"/>
<path d="M82.6731 15.8527C82.0247 15.1823 78.0741 12.6853 73.6275 9.96484C74.1306 12.022 74.3078 14.3346 74.3078 14.3346C74.3255 14.4871 74.3432 14.6467 74.3538 14.8063C74.7011 19.7436 74.6267 23.4395 72.3378 31.1149C71.289 34.6299 66.5093 42.2592 58.4628 46.6255C56.7019 47.5796 53.6725 49.2608 50.0195 51.3109L58.431 59.2878C64.0114 56.0992 68.249 53.6696 68.6742 53.4106C69.971 52.6126 76.3451 48.1258 79.1867 43.8376C82.0247 39.5494 85.5006 33.3495 85.5006 26.6813C85.5006 20.0132 84.2676 17.5055 82.6731 15.8598V15.8527Z" fill="#0BACAC"/>
<path d="M24.9822 65.5977C20.7092 68.0982 17.5452 70.0135 16.7161 70.6555C13.8284 72.9007 7.35156 73.7484 7.35156 73.7484L16.5673 79.0829C16.5673 79.0829 18.7605 80.3811 20.8509 79.881C22.9449 79.3809 26.8282 77.0896 28.5218 76.2419C28.9258 76.0397 31.3422 74.6848 34.8038 72.7233L24.9822 65.5977Z" fill="#0BACAC"/>
<path d="M25.9567 63.8994L48.9234 50.6056L48.3175 34.8007L60.4315 28.0155V27.9623L36.2212 20.2266L13.2227 54.4079L13.2262 54.4646L25.3473 47.9171L25.9567 63.8994Z" fill="#0BACAC"/>
</g>
<defs>
<clipPath id="clip0_1862_62144">
<rect width="85" height="80" fill="white" transform="translate(0.5)"/>
</clipPath>
</defs>
</svg>
