<svg width="66" height="80" viewBox="0 0 66 80" fill="none" xmlns="http://www.w3.org/2000/svg">
<g clip-path="url(#clip0_1862_62085)">
<path d="M21.2299 0.450099C12.9823 2.1523 8.45094 8.2424 6.57209 10.9006C6.47539 11.0381 6.40631 11.1654 6.27507 11.4026C6.14382 11.6399 5.9815 11.9597 5.79499 12.3517C5.42199 13.1324 4.96263 14.2018 4.52401 15.4845C3.6502 18.0498 2.86274 21.4749 3.08033 25.1509C3.22193 27.5134 4.28915 33.6379 4.90392 37.0182C3.72273 37.5099 2.58299 37.9673 1.62974 39.1777C0.859553 40.1578 0.552167 41.1929 0.507268 42.1454C0.462369 43.098 0.635057 43.9714 0.762847 44.7864C1.06333 46.7328 1.8646 49.5216 2.27215 51.2926C3.92996 58.4969 5.54978 65.7252 7.0349 72.9604C7.92252 77.2864 10.7891 79.3119 12.9029 79.7658C16.3428 80.5086 20.2594 79.3119 23.2745 78.0773C32.5617 74.274 41.6762 69.5423 50.808 65.4982C52.452 64.7692 54.3758 63.9198 55.4913 62.1248C56.7934 60.0237 56.4446 57.5374 56.1337 55.4535C54.9664 47.6234 53.9855 41.7534 52.3484 32.307C52.2413 31.6812 52.1308 29.3256 51.2156 27.1798C50.3176 25.0787 48.418 23.0429 45.13 22.9845C44.8088 20.9865 44.5221 18.9989 44.1388 16.9253C43.8521 15.3573 43.5551 13.7307 42.9679 12.1454C42.4948 10.8696 41.058 8.09109 38.478 5.44666C35.8946 2.80567 32.1473 0.340058 27.2015 0.0443222C25.6887 -0.0450864 24.2658 0.00305671 22.9326 0.168119C22.3489 0.240333 21.7825 0.33318 21.2334 0.446661L21.2299 0.450099ZM21.5442 2.08352C22.0554 1.98036 22.5803 1.89439 23.1226 1.82905C24.3625 1.67775 25.6853 1.63304 27.0979 1.71901C31.5394 1.9838 34.8896 4.18462 37.2658 6.62273C39.642 9.06083 41.0304 11.7809 41.3827 12.7369C41.9042 14.1434 42.1908 15.6702 42.4775 17.2383C42.9749 19.9343 43.2857 22.5237 43.7934 25.285C43.8867 25.7871 43.9246 26.1826 43.8487 26.4233C43.7485 26.75 43.3686 27.1007 42.8471 27.3793C41.5346 28.0842 40.2533 28.4143 38.8925 28.1633C38.7543 28.1392 38.5368 28.067 38.3054 27.9776C38.1603 26.9666 37.7493 24.4838 36.4887 18.6654C34.406 9.04363 26.7283 9.38751 23.1778 10.2059C23.1778 10.2059 23.2435 10.2128 23.2504 10.2128C22.4353 10.3985 21.6271 10.6702 20.8362 11.0484C18.2217 12.3002 16.2496 14.4769 14.7368 16.7947C14.3016 17.4584 13.8906 18.1495 13.5418 18.8889C12.2984 21.5299 11.998 24.4666 12.1189 27.2795C12.2466 30.2438 13.6247 34.5044 13.9908 37.0595C14.0426 37.4274 13.7905 37.9776 13.2206 38.4934C12.6507 39.0092 11.8253 39.4219 11.2071 39.5388C10.0259 39.7623 9.14861 39.8449 8.50966 39.8346C6.73787 30.5842 4.72432 21.554 8.28516 14.6626C10.3678 10.6289 14.0979 4.64886 20.7671 2.2761C21.0261 2.2142 21.2748 2.14198 21.5407 2.08696L21.5442 2.08352ZM24.1034 11.7225C25.5195 11.4714 26.9494 11.578 28.431 12.0423C29.8194 12.479 31.2528 13.8614 32.1058 15.23C33.9536 18.1908 34.3646 21.5127 34.8965 25.1406C27.8922 27.8022 21.6823 30.1234 14.8162 32.7266C14.3465 30.6977 13.8665 28.6482 13.8043 27.2004C13.6903 24.5595 13.9839 21.8944 15.0684 19.5938C15.3723 18.9473 15.7419 18.3215 16.1459 17.7025C17.5585 15.5429 19.3476 13.6172 21.5684 12.5546C22.4111 12.1523 23.2538 11.8738 24.1034 11.7225ZM47.7134 25.3573C48.6425 25.9384 49.2296 26.8256 49.6648 27.8401C50.4246 29.6179 50.5179 31.6055 50.6906 32.5959C52.3242 42.0388 53.3016 47.8882 54.4656 55.7046C54.7695 57.7541 54.9594 59.7933 54.058 61.2479C53.2878 62.4859 51.7474 63.2527 50.1207 63.9714C40.9268 68.0464 31.8226 72.7678 22.6321 76.5333C20.9674 77.2142 19.0264 77.8332 17.1441 78.1289C14.1428 78.0498 12.8545 76.3407 12.3192 74.0952C11.7597 71.7568 6.27852 44.2053 5.0248 43.1805C7.73947 43.9439 17.2442 39.5354 31.011 34.2053C43.9868 29.1812 49.5094 27.7472 47.7169 25.3573H47.7134Z" fill="#0BACAC"/>
<path d="M52.5 24.1036L55.4702 11.5898L62.6126 17.8484L55.4702 25.9021L52.5 24.1036Z" fill="#2AC9C9"/>
<path d="M56.4219 29.8906L64.6833 22.1602L65.5018 32.7276H57.5582L56.4219 29.8906Z" fill="#2AC9C9"/>
<path d="M57.5547 34.3008L65.4984 36.4019L62.611 46.0339L57.5547 39.9989V34.3008Z" fill="#2AC9C9"/>
<path d="M45.9613 34.34C45.2878 34.4844 44.6903 35.0106 44.3898 35.7224C43.9512 36.8434 44.3656 38.0401 45.3154 38.4012C46.2272 38.7451 47.3117 38.1949 47.7849 37.1392C48.2511 36.0319 47.8712 34.8146 46.9318 34.4225C46.6313 34.2953 46.2963 34.2678 45.9578 34.34H45.9613Z" fill="#3BB9BB"/>
<path d="M17.2198 46.0744C16.5463 46.2154 15.9488 46.7415 15.6484 47.4568C15.1821 48.5641 15.562 49.7814 16.5014 50.1734C17.4409 50.5654 18.5806 49.9843 19.0469 48.8736C19.5131 47.7663 19.1332 46.5489 18.1938 46.1569C17.8933 46.0297 17.5583 46.0022 17.2198 46.0744Z" fill="#3BB9BB"/>
<path d="M33.9089 44.2165C33.377 44.3162 32.8417 44.5088 32.3236 44.7908C31.0008 45.5095 29.9267 46.7337 29.2878 48.2433C27.9753 51.3554 28.9631 54.7633 31.4878 55.9359L32.0991 59.1408C32.2856 60.3616 33.0075 61.3417 34.0263 61.7681C34.5859 62.0019 35.1834 62.0501 35.7705 61.94C37.0208 61.7027 38.2089 60.7433 38.8064 59.3231C39.169 58.4634 39.2726 57.5177 39.1034 56.6649C38.9791 56.0494 38.613 54.0996 38.4265 53.1092C38.5922 52.8272 38.7373 52.5349 38.8616 52.2392C40.2017 49.0583 39.1448 45.5783 36.5062 44.4744C35.6876 44.134 34.8 44.048 33.9124 44.2165H33.9089Z" fill="#19A4A3"/>
<path d="M50.1945 55.9925C49.5141 56.0922 48.8682 56.6596 48.5367 57.4437C48.0531 58.5441 48.3364 59.7408 49.1722 60.1122C50.0045 60.4836 51.0717 59.8955 51.5553 58.7917C51.5656 58.7676 51.576 58.7401 51.5864 58.716C52.0526 57.6087 51.7487 56.4224 50.906 56.0716C50.6884 55.9788 50.4466 55.9513 50.1945 55.9891V55.9925Z" fill="#3BB9BB"/>
<path d="M22.0222 68.3623C21.3729 68.5136 20.7892 69.0466 20.4887 69.7584C20.0225 70.8692 20.3679 72.0693 21.2658 72.4441C22.1604 72.8189 23.2656 72.2206 23.7318 71.1133C24.1981 70.006 23.8527 68.8024 22.9547 68.4276C22.6681 68.3073 22.3434 68.2832 22.0188 68.3623H22.0222Z" fill="#3BB9BB"/>
</g>
<defs>
<clipPath id="clip0_1862_62085">
<rect width="65" height="80" fill="white" transform="translate(0.5)"/>
</clipPath>
</defs>
</svg>
