<svg width="82" height="80" viewBox="0 0 82 80" fill="none" xmlns="http://www.w3.org/2000/svg">
<g clip-path="url(#clip0_1862_62109)">
<path d="M46.0507 62.5512C47.3736 62.5512 48.6484 63.3525 49.6337 64.8045C50.7052 66.3831 51.2943 68.4959 51.2943 70.7629C51.2943 73.0298 50.7052 75.1426 49.6337 76.7213C48.6449 78.1766 47.3736 78.9745 46.0507 78.9745C44.7277 78.9745 43.4529 78.1732 42.4676 76.7213C41.3961 75.1426 40.807 73.0298 40.807 70.7629C40.807 68.4959 41.3961 66.3831 42.4676 64.8045C43.4564 63.3491 44.7277 62.5512 46.0507 62.5512ZM46.0507 61.5273C42.5847 61.5273 39.7734 65.664 39.7734 70.7629C39.7734 75.8617 42.5847 79.9984 46.0507 79.9984C49.5166 79.9984 52.3279 75.8617 52.3279 70.7629C52.3279 65.664 49.5166 61.5273 46.0507 61.5273Z" fill="#2AC9C9"/>
<path d="M39.7783 70.7629C39.7783 65.9482 42.283 61.9931 45.4802 61.565C45.2666 61.541 45.0495 61.5273 44.8325 61.5273C40.9152 61.5273 37.7422 65.664 37.7422 70.7629C37.7422 75.8617 40.9187 79.9984 44.8325 79.9984C45.0495 79.9984 45.2666 79.9847 45.4802 79.9607C42.283 79.5327 39.7783 75.5809 39.7783 70.7629Z" fill="#2AC9C9"/>
<path d="M46.324 75.0844C48.0498 75.0844 49.4489 73.1618 49.4489 70.7902C49.4489 68.4186 48.0498 66.4961 46.324 66.4961C44.5983 66.4961 43.1992 68.4186 43.1992 70.7902C43.1992 73.1618 44.5983 75.0844 46.324 75.0844Z" fill="#19A4A3"/>
<path d="M65.8632 60.3637C67.1861 60.3637 68.4609 61.165 69.4462 62.617C70.5177 64.1956 71.1068 66.3084 71.1068 68.5754C71.1068 70.8423 70.5177 72.9551 69.4462 74.5338C68.4574 75.9891 67.1861 76.787 65.8632 76.787C64.5402 76.787 63.2654 75.9857 62.2801 74.5338C61.2086 72.9551 60.6195 70.8423 60.6195 68.5754C60.6195 66.3084 61.2086 64.1956 62.2801 62.617C63.2689 61.1616 64.5402 60.3637 65.8632 60.3637ZM65.8632 59.3398C62.3972 59.3398 59.5859 63.4765 59.5859 68.5754C59.5859 73.6742 62.3972 77.8109 65.8632 77.8109C69.3291 77.8109 72.1404 73.6742 72.1404 68.5754C72.1404 63.4765 69.3291 59.3398 65.8632 59.3398Z" fill="#2AC9C9"/>
<path d="M59.5869 68.5793C59.5869 63.7646 62.0916 59.8095 65.2888 59.3814C65.0752 59.3574 64.8581 59.3438 64.6411 59.3438C59.1011 59.3438 57.5508 63.4804 57.5508 68.5793C57.5508 73.6781 60.7273 77.8148 64.6411 77.8148C64.8581 77.8148 65.0752 77.8011 65.2888 77.7771C62.0916 77.3491 59.5869 73.3973 59.5869 68.5793Z" fill="#2AC9C9"/>
<path d="M66.1365 72.8969C67.8623 72.8969 69.2614 70.9743 69.2614 68.6027C69.2614 66.2311 67.8623 64.3086 66.1365 64.3086C64.4108 64.3086 63.0117 66.2311 63.0117 68.6027C63.0117 70.9743 64.4108 72.8969 66.1365 72.8969Z" fill="#19A4A3"/>
<path d="M36.3269 71.0808C36.2064 70.2658 36.4992 69.4816 36.73 69.0296L33.557 69.1392L17.0095 67.0469C16.7959 67.4064 16.6719 67.8242 16.6719 68.2728C16.6719 69.5124 17.4953 70.1733 18.7321 70.2966L36.5991 72.5464C36.5026 71.9369 36.3752 71.4061 36.3235 71.0774L36.3269 71.0808Z" fill="#19A4A3"/>
<path d="M40.3077 57.711C39.5118 56.6837 37.6032 56.3789 35.8254 56.3789C35.6325 56.3789 35.4396 56.3926 35.2501 56.4166C35.0365 56.3926 34.8194 56.3789 34.6024 56.3789C32.0288 56.3789 30.5094 57.9096 29.4414 59.0705L40.3077 57.711Z" fill="#3BB9BB"/>
<path d="M30.3355 72.9922C31.5241 74.1599 33.0021 74.8516 34.6007 74.8516C34.8177 74.8516 35.052 74.8756 35.2656 74.8516C35.4551 74.8756 35.6308 74.8516 35.8237 74.8516C36.3784 74.8516 36.9159 74.7455 37.4292 74.5468C37.3706 74.3106 37.1054 74.04 37.0571 73.7935L30.332 72.9922H30.3355Z" fill="#3BB9BB"/>
<path d="M16.2904 71.2311C15.4945 71.0154 14.4265 69.7244 14.2336 68.5807C14.0958 67.7862 14.3541 66.8171 14.3541 66.8171C14.3541 66.8171 13.827 66.6802 13.4033 66.4918C13.0381 66.3309 12.0011 65.5227 11.8495 64.016C11.6427 61.9237 14.0647 61.3964 14.0647 61.3964L19.9216 60.2629C18.7709 58.2699 17.6547 57.8008 15.7391 57.8008C15.5462 57.8008 15.3533 57.8145 15.1638 57.8384C14.9502 57.8145 14.7331 57.8008 14.5161 57.8008C10.5988 57.8008 7.42578 61.9374 7.42578 67.0363C7.42578 72.1352 10.6023 76.2718 14.5161 76.2718C14.7331 76.2718 14.9502 76.2958 15.1638 76.2718C15.3533 76.2958 15.5428 76.2718 15.7391 76.2718C18.199 76.2718 20.0216 74.9808 21.0517 71.9503C18.7916 71.6352 16.6521 71.3236 16.2973 71.2277L16.2904 71.2311Z" fill="#2AC9C9"/>
<path d="M57.5441 61.9247C58.3538 60.483 58.6018 59.9797 59.3081 59.6235L43.7942 58.6339C43.7081 58.6099 43.6219 58.5928 43.5324 58.5859L43.3946 58.6065L43.2567 58.5962C42.9467 58.5654 42.6504 58.6202 42.3885 58.7435L14.8508 62.4863C13.8792 62.387 13.0352 63.1472 13.0352 64.1163C13.0352 64.9587 13.676 65.6607 14.5166 65.7463L33.6101 67.9653C33.679 67.9721 33.7445 67.9755 33.8099 67.9721C33.8099 67.9721 33.8099 67.9721 33.8134 67.9721H33.8237C33.9271 67.9687 34.0304 67.955 34.1303 67.9345L36.9899 67.4516C37.2345 66.6024 37.7306 65.1094 38.4369 64.0581L34.1475 64.7121C34.0786 64.7053 34.0132 64.7019 33.9477 64.7053C33.9477 64.7053 33.9477 64.7053 33.9443 64.7053L27.605 63.969L40.9243 61.5343C42.1405 60.7467 44.2869 60.1338 45.851 60.2194C47.3462 60.3015 48.9965 61.1679 50.1438 62.0719L50.5985 62.4692C51.1119 62.9657 51.5735 63.7362 51.8319 64.3765C52.018 64.8423 52.2006 65.0546 52.3315 65.4552L56.514 65.0032C56.7 64.3868 56.9136 63.0513 57.5476 61.9247H57.5441Z" fill="#19A4A3"/>
<path d="M52.5117 66.497L56.3807 66.0039C56.3807 66.0039 56.2808 66.7607 56.3532 67.7161C56.4255 68.6715 56.5151 69.894 56.5151 69.894L53.0423 69.5652C53.0423 69.5652 53.0423 68.353 52.8804 67.7572C52.7184 67.1613 52.5152 66.497 52.5152 66.497H52.5117Z" fill="#19A4A3"/>
<path d="M50.1036 50.6205L54.0139 50.1719L52.2396 59.695L48.3086 59.3423L50.1036 50.6205Z" fill="#19A4A3"/>
<path d="M69.6885 48.775C69.6885 48.775 72.6411 48.6586 73.6023 47.3984C73.5334 48.3436 71.0494 61.1712 71.0494 61.1712C71.0494 61.1712 70.6498 60.0926 69.7988 59.5789C68.8445 59.0036 67.8281 58.5893 67.8281 58.5893L69.6885 48.7785V48.775Z" fill="#19A4A3"/>
<path d="M36.8433 29.2788L1.5917 24.9435C0.682156 24.8305 0 24.0635 0 23.1526C0 22.0671 0.95433 21.2281 2.03958 21.3617L37.2878 25.6969C38.1973 25.8099 38.8795 26.577 38.8795 27.4878C38.8795 28.5734 37.9251 29.4123 36.8399 29.2788H36.8433Z" fill="#19A4A3"/>
<path d="M79.961 23.5132L44.7128 19.1779C43.8032 19.0649 43.1211 18.2979 43.1211 17.387C43.1211 16.3014 44.0754 15.4625 45.1607 15.596L80.4089 19.9313C81.3184 20.0443 82.0005 20.8113 82.0005 21.7222C82.0005 22.8077 81.0462 23.6467 79.961 23.5132Z" fill="#19A4A3"/>
<path d="M44.9948 19.1678L1.5917 24.9447C0.682156 24.8317 0 24.0647 0 23.1538C0 22.0683 0.95433 21.2293 2.03958 21.3628L45.4392 15.5859C46.3487 15.6989 47.0309 16.466 47.0309 17.3769C47.0309 18.4624 46.0765 19.3014 44.9913 19.1678H44.9948Z" fill="#19A4A3"/>
<path d="M79.9601 23.5116L36.5604 29.2885C35.6509 29.1755 34.9688 28.4084 34.9688 27.4975C34.9688 26.412 35.9231 25.573 37.0083 25.7066L80.4079 19.9297C81.3175 20.0427 81.9996 20.8097 81.9996 21.7206C81.9996 22.8062 81.0453 23.6451 79.9601 23.5116Z" fill="#19A4A3"/>
<path d="M58.0335 18.3482C56.8174 18.3482 55.832 17.3688 55.832 16.16L58.8466 2.46942C58.8466 1.26062 59.8319 0.28125 61.0481 0.28125C62.2643 0.28125 63.2496 1.26062 63.2496 2.46942L60.235 16.16C60.235 17.3688 59.2497 18.3482 58.0335 18.3482Z" fill="#19A4A3"/>
<path d="M76.3773 20.856C75.1611 20.856 74.1758 19.8766 74.1758 18.6678L77.1904 4.97723C77.1904 3.76843 78.1757 2.78906 79.3919 2.78906C80.608 2.78906 81.5934 3.76843 81.5934 4.97723L78.5788 18.6678C78.5788 19.8766 77.5935 20.856 76.3773 20.856Z" fill="#19A4A3"/>
<path d="M58.8497 2.46897C58.6809 1.27386 59.5215 0.167794 60.7273 0L78.4565 2.66758C79.6589 2.49979 80.7717 3.33533 80.9405 4.53386C81.1093 5.72896 80.2687 6.83503 79.0629 7.00283L61.3337 4.33525C60.1313 4.50304 59.0185 3.66749 58.8497 2.46897Z" fill="#19A4A3"/>
<path d="M1.59329 27.7909L8.22881 45.2996C8.22881 45.2996 8.63535 47.9467 12.0048 48.4055C15.3742 48.8644 34.0129 51.08 34.0129 51.08C34.0129 51.08 37.2997 51.08 39.8561 50.782C42.409 50.4841 65.7229 47.6487 65.7229 47.6487C65.7229 47.6487 70.3705 47.433 71.7279 46.892C73.0853 46.3509 73.5745 43.947 75.2317 38.4406C76.8889 32.9308 79.931 26.3047 79.931 26.3047L37.5753 32.2425C37.5753 32.2425 34.168 32.0336 29.4377 31.3282C24.7108 30.6194 1.58984 27.7943 1.58984 27.7943L1.59329 27.7909Z" fill="#2AC9C9"/>
</g>
<defs>
<clipPath id="clip0_1862_62109">
<rect width="82" height="80" fill="white"/>
</clipPath>
</defs>
</svg>
